<svg width="40" height="40" viewBox="0 0 40 40" fill="none" xmlns="http://www.w3.org/2000/svg">
<path d="M23.3335 5V11.6667C23.3335 12.1087 23.5091 12.5326 23.8217 12.8452C24.1342 13.1577 24.5581 13.3333 25.0002 13.3333H31.6668" fill="#657ADC"/>
<path d="M28.3335 35H11.6668C10.7828 35 9.93493 34.6488 9.30981 34.0237C8.68469 33.3986 8.3335 32.5507 8.3335 31.6667V8.33333C8.3335 7.44928 8.68469 6.60143 9.30981 5.97631C9.93493 5.35119 10.7828 5 11.6668 5H23.3335L31.6668 13.3333V31.6667C31.6668 32.5507 31.3156 33.3986 30.6905 34.0237C30.0654 34.6488 29.2176 35 28.3335 35Z" fill="#657ADC"/>
<path d="M23.3335 5V11.6667C23.3335 12.1087 23.5091 12.5326 23.8217 12.8452C24.1342 13.1577 24.5581 13.3333 25.0002 13.3333H31.6668M23.3335 5H11.6668C10.7828 5 9.93493 5.35119 9.30981 5.97631C8.68469 6.60143 8.3335 7.44928 8.3335 8.33333V31.6667C8.3335 32.5507 8.68469 33.3986 9.30981 34.0237C9.93493 34.6488 10.7828 35 11.6668 35H28.3335C29.2176 35 30.0654 34.6488 30.6905 34.0237C31.3156 33.3986 31.6668 32.5507 31.6668 31.6667V13.3333M23.3335 5L31.6668 13.3333M20.0002 18.3333V28.3333M15.0002 23.3333H25.0002" stroke="#FCFCFF" stroke-width="2" stroke-linecap="round" stroke-linejoin="round"/>
</svg>
